<?xml version="1.0" encoding="UTF-8" standalone="no"?>
<!-- Created with Inkscape (http://www.inkscape.org/) -->

<svg
   xmlns:dc="http://purl.org/dc/elements/1.1/"
   xmlns:cc="http://creativecommons.org/ns#"
   xmlns:rdf="http://www.w3.org/1999/02/22-rdf-syntax-ns#"
   xmlns:svg="http://www.w3.org/2000/svg"
   xmlns="http://www.w3.org/2000/svg"
   xmlns:sodipodi="http://sodipodi.sourceforge.net/DTD/sodipodi-0.dtd"
   xmlns:inkscape="http://www.inkscape.org/namespaces/inkscape"
   width="210mm"
   height="297mm"
   viewBox="0 0 744.09448819 1052.3622047"
   id="svg13449"
   version="1.1"
   inkscape:version="0.91 r13725"
   sodipodi:docname="miniCARL-top-mk2.svg">
  <defs
     id="defs13451" />
  <sodipodi:namedview
     id="base"
     pagecolor="#ffffff"
     bordercolor="#666666"
     borderopacity="1.0"
     inkscape:pageopacity="0.0"
     inkscape:pageshadow="2"
     inkscape:zoom="1.6597636"
     inkscape:cx="436.48485"
     inkscape:cy="576.95986"
     inkscape:document-units="px"
     inkscape:current-layer="layer1"
     showgrid="false"
     showguides="true"
     inkscape:guide-bbox="true"
     inkscape:window-width="1440"
     inkscape:window-height="851"
     inkscape:window-x="-6"
     inkscape:window-y="61"
     inkscape:window-maximized="0"
     inkscape:snap-bbox="true"
     inkscape:snap-bbox-edge-midpoints="true">
    <sodipodi:guide
       position="56.75297,577.25879"
       orientation="0,1"
       id="guide13999" />
    <sodipodi:guide
       position="436.18711,679.41413"
       orientation="1,0"
       id="guide14001" />
  </sodipodi:namedview>
  <metadata
     id="metadata13454">
    <rdf:RDF>
      <cc:Work
         rdf:about="">
        <dc:format>image/svg+xml</dc:format>
        <dc:type
           rdf:resource="http://purl.org/dc/dcmitype/StillImage" />
        <dc:title></dc:title>
      </cc:Work>
    </rdf:RDF>
  </metadata>
  <g
     inkscape:label="Layer 1"
     inkscape:groupmode="layer"
     id="layer1">
    <path
       style="opacity:0.75;fill:#fa4544;fill-opacity:1;fill-rule:evenodd;stroke:none;stroke-width:1.18856156;stroke-linecap:round;stroke-linejoin:round;stroke-miterlimit:4;stroke-dasharray:none;stroke-dashoffset:0;stroke-opacity:1"
       d="m 435.74805,290.65625 c -7.60856,0.03 -8.96718,12.035 -1.55078,13.75781 7.32929,2.61754 12.61248,-8.65635 5.87304,-12.59765 -1.26317,-0.84326 -2.80639,-1.25954 -4.32226,-1.16016 z"
       id="path4230"
       inkscape:connector-curvature="0" />
    <path
       style="opacity:0.75;fill:#fa4544;fill-opacity:1;fill-rule:evenodd;stroke:none;stroke-width:1.18856156;stroke-linecap:round;stroke-linejoin:round;stroke-miterlimit:4;stroke-dasharray:none;stroke-dashoffset:0;stroke-opacity:1"
       d="m 566.33176,344.40244 c -5.39855,-5.36812 -14.86186,2.15836 -10.83309,8.62614 3.33367,7.03473 15.04073,2.79561 13.06076,-4.75777 -0.29811,-1.48578 -1.09137,-2.86549 -2.22767,-3.86837 z"
       id="circle4236"
       inkscape:connector-curvature="0" />
    <path
       style="opacity:0.75;fill:#fa4544;fill-opacity:1;fill-rule:evenodd;stroke:none;stroke-width:1.18856156;stroke-linecap:round;stroke-linejoin:round;stroke-miterlimit:4;stroke-dasharray:none;stroke-dashoffset:0;stroke-opacity:1"
       d="m 620.6543,474.72852 c -0.0307,-7.61333 -12.04405,-8.96534 -13.76172,-1.54297 -2.60279,7.33051 8.66385,12.60013 12.60351,5.86328 0.83987,-1.26431 1.2582,-2.80474 1.15821,-4.32031 z"
       id="circle4238"
       inkscape:connector-curvature="0" />
    <path
       style="opacity:0.75;fill:#fa4544;fill-opacity:1;fill-rule:evenodd;stroke:none;stroke-width:1.18856156;stroke-linecap:round;stroke-linejoin:round;stroke-miterlimit:4;stroke-dasharray:none;stroke-dashoffset:0;stroke-opacity:1"
       d="m 566.91319,605.30412 c 5.36026,-5.40536 -2.17423,-14.85404 -8.63858,-10.82343 -7.02901,3.3446 -2.78039,15.04306 4.7716,13.058 1.4845,-0.30428 2.86685,-1.09404 3.86698,-2.23457 z"
       id="circle4240"
       inkscape:connector-curvature="0" />
    <path
       style="opacity:0.75;fill:#fa4544;fill-opacity:1;fill-rule:evenodd;stroke:none;stroke-width:1.18856156;stroke-linecap:round;stroke-linejoin:round;stroke-miterlimit:4;stroke-dasharray:none;stroke-dashoffset:0;stroke-opacity:1"
       d="m 436.57227,659.63477 c 7.61402,-0.0204 8.98187,-12.03427 1.56054,-13.75977 -7.33619,-2.61654 -12.61294,8.66744 -5.86523,12.60547 1.26221,0.83319 2.79408,1.25015 4.30469,1.1543 z"
       id="circle4242"
       inkscape:connector-curvature="0" />
    <path
       style="opacity:0.75;fill:#fa4544;fill-opacity:1;fill-rule:evenodd;stroke:none;stroke-width:1.18856156;stroke-linecap:round;stroke-linejoin:round;stroke-miterlimit:4;stroke-dasharray:none;stroke-dashoffset:0;stroke-opacity:1"
       d="m 305.99908,605.88693 c 5.39887,5.36916 14.86047,-2.15821 10.8331,-8.62615 -3.33426,-7.03371 -15.04138,-2.79547 -13.06077,4.75778 0.2981,1.48578 1.09137,2.86548 2.22767,3.86837 z"
       id="circle4244"
       inkscape:connector-curvature="0" />
    <path
       style="opacity:0.75;fill:#fa4544;fill-opacity:1;fill-rule:evenodd;stroke:none;stroke-width:1.18856156;stroke-linecap:round;stroke-linejoin:round;stroke-miterlimit:4;stroke-dasharray:none;stroke-dashoffset:0;stroke-opacity:1"
       d="m 251.67578,475.56055 c 0.0305,7.60936 12.03453,8.96904 13.75977,1.55273 2.61605,-7.33388 -8.665,-12.61476 -12.60157,-5.86719 -0.84063,1.26204 -1.2565,2.80081 -1.1582,4.31446 z"
       id="circle4246"
       inkscape:connector-curvature="0" />
    <path
       style="opacity:0.75;fill:#fa4544;fill-opacity:1;fill-rule:evenodd;stroke:none;stroke-width:1.18856156;stroke-linecap:round;stroke-linejoin:round;stroke-miterlimit:4;stroke-dasharray:none;stroke-dashoffset:0;stroke-opacity:1"
       d="m 305.41765,344.98525 c -5.35856,5.40234 2.16701,14.85049 8.63167,10.82757 7.03518,-3.33549 2.7928,-15.04797 -4.76192,-13.05938 -1.48682,0.29797 -2.86896,1.09198 -3.86975,2.23181 z"
       id="circle4248"
       inkscape:connector-curvature="0" />
    <path
       style="opacity:0.75;fill:none;fill-opacity:1;fill-rule:evenodd;stroke:#000000;stroke-width:2;stroke-linecap:round;stroke-linejoin:round;stroke-miterlimit:4;stroke-dasharray:none;stroke-dashoffset:0;stroke-opacity:1"
       d="M 436.48438 280.89258 A 194.50967 194.50967 0 0 0 241.97656 475.40234 A 194.50967 194.50967 0 0 0 435.70117 669.88477 L 436.1875 670.98242 L 436.66602 669.90234 A 194.50967 194.50967 0 0 0 630.99414 475.40234 A 194.50967 194.50967 0 0 0 436.48438 280.89258 z M 510.72461 337.33789 A 156.6684 156.6684 0 0 1 592.85547 475.10352 A 156.6684 156.6684 0 0 1 454.13281 630.54492 L 534.87305 448.61523 C 539.83972 434.13128 541.62305 423.22957 541.62305 411.91016 C 541.62305 382.78568 529.81523 356.41957 510.72461 337.33789 z M 361.34961 337.64648 C 342.43786 356.7036 330.75 382.94071 330.75 411.91016 C 330.75 424.96832 333.12436 437.47085 339.23828 452.15039 L 418.32031 630.65234 A 156.6684 156.6684 0 0 1 279.51953 475.10352 A 156.6684 156.6684 0 0 1 361.34961 337.64648 z "
       id="path4295" />
    <rect
       style="opacity:0.75;fill:none;fill-opacity:1;fill-rule:evenodd;stroke:none;stroke-width:2;stroke-linecap:round;stroke-linejoin:round;stroke-miterlimit:4;stroke-dasharray:none;stroke-dashoffset:0;stroke-opacity:1"
       id="rect5117"
       width="161.50793"
       height="261.32532"
       x="355.43314"
       y="344.44077" />
  </g>
</svg>
